P3 224 16 255 0 0 0 0 0 7 0 0 15 0 0 23 0 0 31 0 0 39 0 0 47 0 0 55 0 0 63 0 0 71 0 0 79 0 0 87 0 0 95 0 0 103 0 0 111 0 0 119 0 0 127 0 0 135 0 0 143 0 0 151 0 0 159 0 0 167 0 0 175 0 0 183 0 0 191 0 0 199 0 0 207 0 0 215 0 0 223 0 0 231 0 0 239 0 0 247 0 0 255 0 7 255 0 15 255 0 23 255 0 31 255 0 39 255 0 47 255 0 55 255 0 63 255 0 71 255 0 79 255 0 87 255 0 95 255 0 103 255 0 111 255 0 119 255 0 127 255 0 135 255 0 143 255 0 151 255 0 159 255 0 167 255 0 175 255 0 183 255 0 191 255 0 199 255 0 207 255 0 215 255 0 223 255 0 231 255 0 239 255 0 247 255 0 255 255 0 255 247 0 255 239 0 255 231 0 255 223 0 255 215 0 255 207 0 255 199 0 255 191 0 255 183 0 255 175 0 255 167 0 255 159 0 255 151 0 255 143 0 255 135 0 255 127 0 255 119 0 255 111 0 255 103 0 255 95 0 255 87 0 255 79 0 255 71 0 255 63 0 255 55 0 255 47 0 255 39 0 255 31 0 255 23 0 255 15 0 255 7 0 255 0 7 255 0 15 255 0 23 255 0 31 255 0 39 255 0 47 255 0 55 255 0 63 255 0 71 255 0 79 255 0 87 255 0 95 255 0 103 255 0 111 255 0 119 255 0 127 255 0 135 255 0 143 255 0 151 255 0 159 255 0 167 255 0 175 255 0 183 255 0 191 255 0 199 255 0 207 255 0 215 255 0 223 255 0 231 255 0 239 255 0 247 255 0 255 255 0 255 247 0 255 239 0 255 231 0 255 223 0 255 215 0 255 207 0 255 199 0 255 191 0 255 183 0 255 175 0 255 167 0 255 159 0 255 151 0 255 143 0 255 135 0 255 127 0 255 119 0 255 111 0 255 103 0 255 95 0 255 87 0 255 79 0 255 71 0 255 63 0 255 55 0 255 47 0 255 39 0 255 31 0 255 23 0 255 15 0 255 7 0 255 0 0 255 0 7 255 0 15 255 0 23 255 0 31 255 0 39 255 0 47 255 0 55 255 0 63 255 0 71 255 0 79 255 0 87 255 0 95 255 0 103 255 0 111 255 0 119 255 0 127 255 0 135 255 0 143 255 0 151 255 0 159 255 0 167 255 0 175 255 0 183 255 0 191 255 0 199 255 0 207 255 0 215 255 0 223 255 0 231 255 0 239 255 0 247 255 0 255 255 8 255 255 16 255 255 24 255 255 32 255 255 41 255 255 49 255 255 57 255 255 65 255 255 74 255 255 82 255 255 90 255 255 98 255 255 106 255 255 115 255 255 123 255 255 131 255 255 139 255 255 148 255 255 156 255 255 164 255 255 172 255 255 180 255 255 189 255 255 197 255 255 205 255 255 213 255 255 222 255 255 230 255 255 238 255 255 246 255 255 255 255
0 0 0 0 0 7 0 0 15 0 0 23 0 0 31 0 0 39 0 0 47 0 0 55 0 0 63 0 0 71 0 0 79 0 0 87 0 0 95 0 0 103 0 0 111 0 0 119 0 0 127 0 0 135 0 0 143 0 0 151 0 0 159 0 0 167 0 0 175 0 0 183 0 0 191 0 0 199 0 0 207 0 0 215 0 0 223 0 0 231 0 0 239 0 0 247 0 0 255 0 7 255 0 15 255 0 23 255 0 31 255 0 39 255 0 47 255 0 55 255 0 63 255 0 71 255 0 79 255 0 87 255 0 95 255 0 103 255 0 111 255 0 119 255 0 127 255 0 135 255 0 143 255 0 151 255 0 159 255 0 167 255 0 175 255 0 183 255 0 191 255 0 199 255 0 207 255 0 215 255 0 223 255 0 231 255 0 239 255 0 247 255 0 255 255 0 255 247 0 255 239 0 255 231 0 255 223 0 255 215 0 255 207 0 255 199 0 255 191 0 255 183 0 255 175 0 255 167 0 255 159 0 255 151 0 255 143 0 255 135 0 255 127 0 255 119 0 255 111 0 255 103 0 255 95 0 255 87 0 255 79 0 255 71 0 255 63 0 255 55 0 255 47 0 255 39 0 255 31 0 255 23 0 255 15 0 255 7 0 255 0 7 255 0 15 255 0 23 255 0 31 255 0 39 255 0 47 255 0 55 255 0 63 255 0 71 255 0 79 255 0 87 255 0 95 255 0 103 255 0 111 255 0 119 255 0 127 255 0 135 255 0 143 255 0 151 255 0 159 255 0 167 255 0 175 255 0 183 255 0 191 255 0 199 255 0 207 255 0 215 255 0 223 255 0 231 255 0 239 255 0 247 255 0 255 255 0 255 247 0 255 239 0 255 231 0 255 223 0 255 215 0 255 207 0 255 199 0 255 191 0 255 183 0 255 175 0 255 167 0 255 159 0 255 151 0 255 143 0 255 135 0 255 127 0 255 119 0 255 111 0 255 103 0 255 95 0 255 87 0 255 79 0 255 71 0 255 63 0 255 55 0 255 47 0 255 39 0 255 31 0 255 23 0 255 15 0 255 7 0 255 0 0 255 0 7 255 0 15 255 0 23 255 0 31 255 0 39 255 0 47 255 0 55 255 0 63 255 0 71 255 0 79 255 0 87 255 0 95 255 0 103 255 0 111 255 0 119 255 0 127 255 0 135 255 0 143 255 0 151 255 0 159 255 0 167 255 0 175 255 0 183 255 0 191 255 0 199 255 0 207 255 0 215 255 0 223 255 0 231 255 0 239 255 0 247 255 0 255 255 8 255 255 16 255 255 24 255 255 32 255 255 41 255 255 49 255 255 57 255 255 65 255 255 74 255 255 82 255 255 90 255 255 98 255 255 106 255 255 115 255 255 123 255 255 131 255 255 139 255 255 148 255 255 156 255 255 164 255 255 172 255 255 180 255 255 189 255 255 197 255 255 205 255 255 213 255 255 222 255 255 230 255 255 238 255 255 246 255 255 255 255
0 0 0 0 0 7 0 0 15 0 0 23 0 0 31 0 0 39 0 0 47 0 0 55 0 0 63 0 0 71 0 0 79 0 0 87 0 0 95 0 0 103 0 0 111 0 0 119 0 0 127 0 0 135 0 0 143 0 0 151 0 0 159 0 0 167 0 0 175 0 0 183 0 0 191 0 0 199 0 0 207 0 0 215 0 0 223 0 0 231 0 0 239 0 0 247 0 0 255 0 7 255 0 15 255 0 23 255 0 31 255 0 39 255 0 47 255 0 55 255 0 63 255 0 71 255 0 79 255 0 87 255 0 95 255 0 103 255 0 111 255 0 119 255 0 127 255 0 135 255 0 143 255 0 151 255 0 159 255 0 167 255 0 175 255 0 183 255 0 191 255 0 199 255 0 207 255 0 215 255 0 223 255 0 231 255 0 239 255 0 247 255 0 255 255 0 255 247 0 255 239 0 255 231 0 255 223 0 255 215 0 255 207 0 255 199 0 255 191 0 255 183 0 255 175 0 255 167 0 255 159 0 255 151 0 255 143 0 255 135 0 255 127 0 255 119 0 255 111 0 255 103 0 255 95 0 255 87 0 255 79 0 255 71 0 255 63 0 255 55 0 255 47 0 255 39 0 255 31 0 255 23 0 255 15 0 255 7 0 255 0 7 255 0 15 255 0 23 255 0 31 255 0 39 255 0 47 255 0 55 255 0 63 255 0 71 255 0 79 255 0 87 255 0 95 255 0 103 255 0 111 255 0 119 255 0 127 255 0 135 255 0 143 255 0 151 255 0 159 255 0 167 255 0 175 255 0 183 255 0 191 255 0 199 255 0 207 255 0 215 255 0 223 255 0 231 255 0 239 255 0 247 255 0 255 255 0 255 247 0 255 239 0 255 231 0 255 223 0 255 215 0 255 207 0 255 199 0 255 191 0 255 183 0 255 175 0 255 167 0 255 159 0 255 151 0 255 143 0 255 135 0 255 127 0 255 119 0 255 111 0 255 103 0 255 95 0 255 87 0 255 79 0 255 71 0 255 63 0 255 55 0 255 47 0 255 39 0 255 31 0 255 23 0 255 15 0 255 7 0 255 0 0 255 0 7 255 0 15 255 0 23 255 0 31 255 0 39 255 0 47 255 0 55 255 0 63 255 0 71 255 0 79 255 0 87 255 0 95 255 0 103 255 0 111 255 0 119 255 0 127 255 0 135 255 0 143 255 0 151 255 0 159 255 0 167 255 0 175 255 0 183 255 0 191 255 0 199 255 0 207 255 0 215 255 0 223 255 0 231 255 0 239 255 0 247 255 0 255 255 8 255 255 16 255 255 24 255 255 32 255 255 41 255 255 49 255 255 57 255 255 65 255 255 74 255 255 82 255 255 90 255 255 98 255 255 106 255 255 115 255 255 123 255 255 131 255 255 139 255 255 148 255 255 156 255 255 164 255 255 172 255 255 180 255 255 189 255 255 197 255 255 205 255 255 213 255 255 222 255 255 230 255 255 238 255 255 246 255 255 255 255
0 0 0 0 0 7 0 0 15 0 0 23 0 0 31 0 0 39 0 0 47 0 0 55 0 0 63 0 0 71 0 0 79 0 0 87 0 0 95 0 0 103 0 0 111 0 0 119 0 0 127 0 0 135 0 0 143 0 0 151 0 0 159 0 0 167 0 0 175 0 0 183 0 0 191 0 0 199 0 0 207 0 0 215 0 0 223 0 0 231 0 0 239 0 0 247 0 0 255 0 7 255 0 15 255 0 23 255 0 31 255 0 39 255 0 47 255 0 55 255 0 63 255 0 71 255 0 79 255 0 87 255 0 95 255 0 103 255 0 111 255 0 119 255 0 127 255 0 135 255 0 143 255 0 151 255 0 159 255 0 167 255 0 175 255 0 183 255 0 191 255 0 199 255 0 207 255 0 215 255 0 223 255 0 231 255 0 239 255 0 247 255 0 255 255 0 255 247 0 255 239 0 255 231 0 255 223 0 255 215 0 255 207 0 255 199 0 255 191 0 255 183 0 255 175 0 255 167 0 255 159 0 255 151 0 255 143 0 255 135 0 255 127 0 255 119 0 255 111 0 255 103 0 255 95 0 255 87 0 255 79 0 255 71 0 255 63 0 255 55 0 255 47 0 255 39 0 255 31 0 255 23 0 255 15 0 255 7 0 255 0 7 255 0 15 255 0 23 255 0 31 255 0 39 255 0 47 255 0 55 255 0 63 255 0 71 255 0 79 255 0 87 255 0 95 255 0 103 255 0 111 255 0 119 255 0 127 255 0 135 255 0 143 255 0 151 255 0 159 255 0 167 255 0 175 255 0 183 255 0 191 255 0 199 255 0 207 255 0 215 255 0 223 255 0 231 255 0 239 255 0 247 255 0 255 255 0 255 247 0 255 239 0 255 231 0 255 223 0 255 215 0 255 207 0 255 199 0 255 191 0 255 183 0 255 175 0 255 167 0 255 159 0 255 151 0 255 143 0 255 135 0 255 127 0 255 119 0 255 111 0 255 103 0 255 95 0 255 87 0 255 79 0 255 71 0 255 63 0 255 55 0 255 47 0 255 39 0 255 31 0 255 23 0 255 15 0 255 7 0 255 0 0 255 0 7 255 0 15 255 0 23 255 0 31 255 0 39 255 0 47 255 0 55 255 0 63 255 0 71 255 0 79 255 0 87 255 0 95 255 0 103 255 0 111 255 0 119 255 0 127 255 0 135 255 0 143 255 0 151 255 0 159 255 0 167 255 0 175 255 0 183 255 0 191 255 0 199 255 0 207 255 0 215 255 0 223 255 0 231 255 0 239 255 0 247 255 0 255 255 8 255 255 16 255 255 24 255 255 32 255 255 41 255 255 49 255 255 57 255 255 65 255 255 74 255 255 82 255 255 90 255 255 98 255 255 106 255 255 115 255 255 123 255 255 131 255 255 139 255 255 148 255 255 156 255 255 164 255 255 172 255 255 180 255 255 189 255 255 197 255 255 205 255 255 213 255 255 222 255 255 230 255 255 238 255 255 246 255 255 255 255
0 0 0 0 0 7 0 0 15 0 0 23 0 0 31 0 0 39 0 0 47 0 0 55 0 0 63 0 0 71 0 0 79 0 0 87 0 0 95 0 0 103 0 0 111 0 0 119 0 0 127 0 0 135 0 0 143 0 0 151 0 0 159 0 0 167 0 0 175 0 0 183 0 0 191 0 0 199 0 0 207 0 0 215 0 0 223 0 0 231 0 0 239 0 0 247 0 0 255 0 7 255 0 15 255 0 23 255 0 31 255 0 39 255 0 47 255 0 55 255 0 63 255 0 71 255 0 79 255 0 87 255 0 95 255 0 103 255 0 111 255 0 119 255 0 127 255 0 135 255 0 143 255 0 151 255 0 159 255 0 167 255 0 175 255 0 183 255 0 191 255 0 199 255 0 207 255 0 215 255 0 223 255 0 231 255 0 239 255 0 247 255 0 255 255 0 255 247 0 255 239 0 255 231 0 255 223 0 255 215 0 255 207 0 255 199 0 255 191 0 255 183 0 255 175 0 255 167 0 255 159 0 255 151 0 255 143 0 255 135 0 255 127 0 255 119 0 255 111 0 255 103 0 255 95 0 255 87 0 255 79 0 255 71 0 255 63 0 255 55 0 255 47 0 255 39 0 255 31 0 255 23 0 255 15 0 255 7 0 255 0 7 255 0 15 255 0 23 255 0 31 255 0 39 255 0 47 255 0 55 255 0 63 255 0 71 255 0 79 255 0 87 255 0 95 255 0 103 255 0 111 255 0 119 255 0 127 255 0 135 255 0 143 255 0 151 255 0 159 255 0 167 255 0 175 255 0 183 255 0 191 255 0 199 255 0 207 255 0 215 255 0 223 255 0 231 255 0 239 255 0 247 255 0 255 255 0 255 247 0 255 239 0 255 231 0 255 223 0 255 215 0 255 207 0 255 199 0 255 191 0 255 183 0 255 175 0 255 167 0 255 159 0 255 151 0 255 143 0 255 135 0 255 127 0 255 119 0 255 111 0 255 103 0 255 95 0 255 87 0 255 79 0 255 71 0 255 63 0 255 55 0 255 47 0 255 39 0 255 31 0 255 23 0 255 15 0 255 7 0 255 0 0 255 0 7 255 0 15 255 0 23 255 0 31 255 0 39 255 0 47 255 0 55 255 0 63 255 0 71 255 0 79 255 0 87 255 0 95 255 0 103 255 0 111 255 0 119 255 0 127 255 0 135 255 0 143 255 0 151 255 0 159 255 0 167 255 0 175 255 0 183 255 0 191 255 0 199 255 0 207 255 0 215 255 0 223 255 0 231 255 0 239 255 0 247 255 0 255 255 8 255 255 16 255 255 24 255 255 32 255 255 41 255 255 49 255 255 57 255 255 65 255 255 74 255 255 82 255 255 90 255 255 98 255 255 106 255 255 115 255 255 123 255 255 131 255 255 139 255 255 148 255 255 156 255 255 164 255 255 172 255 255 180 255 255 189 255 255 197 255 255 205 255 255 213 255 255 222 255 255 230 255 255 238 255 255 246 255 255 255 255
0 0 0 0 0 7 0 0 15 0 0 23 0 0 31 0 0 39 0 0 47 0 0 55 0 0 63 0 0 71 0 0 79 0 0 87 0 0 95 0 0 103 0 0 111 0 0 119 0 0 127 0 0 135 0 0 143 0 0 151 0 0 159 0 0 167 0 0 175 0 0 183 0 0 191 0 0 199 0 0 207 0 0 215 0 0 223 0 0 231 0 0 239 0 0 247 0 0 255 0 7 255 0 15 255 0 23 255 0 31 255 0 39 255 0 47 255 0 55 255 0 63 255 0 71 255 0 79 255 0 87 255 0 95 255 0 103 255 0 111 255 0 119 255 0 127 255 0 135 255 0 143 255 0 151 255 0 159 255 0 167 255 0 175 255 0 183 255 0 191 255 0 199 255 0 207 255 0 215 255 0 223 255 0 231 255 0 239 255 0 247 255 0 255 255 0 255 247 0 255 239 0 255 231 0 255 223 0 255 215 0 255 207 0 255 199 0 255 191 0 255 183 0 255 175 0 255 167 0 255 159 0 255 151 0 255 143 0 255 135 0 255 127 0 255 119 0 255 111 0 255 103 0 255 95 0 255 87 0 255 79 0 255 71 0 255 63 0 255 55 0 255 47 0 255 39 0 255 31 0 255 23 0 255 15 0 255 7 0 255 0 7 255 0 15 255 0 23 255 0 31 255 0 39 255 0 47 255 0 55 255 0 63 255 0 71 255 0 79 255 0 87 255 0 95 255 0 103 255 0 111 255 0 119 255 0 127 255 0 135 255 0 143 255 0 151 255 0 159 255 0 167 255 0 175 255 0 183 255 0 191 255 0 199 255 0 207 255 0 215 255 0 223 255 0 231 255 0 239 255 0 247 255 0 255 255 0 255 247 0 255 239 0 255 231 0 255 223 0 255 215 0 255 207 0 255 199 0 255 191 0 255 183 0 255 175 0 255 167 0 255 159 0 255 151 0 255 143 0 255 135 0 255 127 0 255 119 0 255 111 0 255 103 0 255 95 0 255 87 0 255 79 0 255 71 0 255 63 0 255 55 0 255 47 0 255 39 0 255 31 0 255 23 0 255 15 0 255 7 0 255 0 0 255 0 7 255 0 15 255 0 23 255 0 31 255 0 39 255 0 47 255 0 55 255 0 63 255 0 71 255 0 79 255 0 87 255 0 95 255 0 103 255 0 111 255 0 119 255 0 127 255 0 135 255 0 143 255 0 151 255 0 159 255 0 167 255 0 175 255 0 183 255 0 191 255 0 199 255 0 207 255 0 215 255 0 223 255 0 231 255 0 239 255 0 247 255 0 255 255 8 255 255 16 255 255 24 255 255 32 255 255 41 255 255 49 255 255 57 255 255 65 255 255 74 255 255 82 255 255 90 255 255 98 255 255 106 255 255 115 255 255 123 255 255 131 255 255 139 255 255 148 255 255 156 255 255 164 255 255 172 255 255 180 255 255 189 255 255 197 255 255 205 255 255 213 255 255 222 255 255 230 255 255 238 255 255 246 255 255 255 255
0 0 0 0 0 7 0 0 15 0 0 23 0 0 31 0 0 39 0 0 47 0 0 55 0 0 63 0 0 71 0 0 79 0 0 87 0 0 95 0 0 103 0 0 111 0 0 119 0 0 127 0 0 135 0 0 143 0 0 151 0 0 159 0 0 167 0 0 175 0 0 183 0 0 191 0 0 199 0 0 207 0 0 215 0 0 223 0 0 231 0 0 239 0 0 247 0 0 255 0 7 255 0 15 255 0 23 255 0 31 255 0 39 255 0 47 255 0 55 255 0 63 255 0 71 255 0 79 255 0 87 255 0 95 255 0 103 255 0 111 255 0 119 255 0 127 255 0 135 255 0 143 255 0 151 255 0 159 255 0 167 255 0 175 255 0 183 255 0 191 255 0 199 255 0 207 255 0 215 255 0 223 255 0 231 255 0 239 255 0 247 255 0 255 255 0 255 247 0 255 239 0 255 231 0 255 223 0 255 215 0 255 207 0 255 199 0 255 191 0 255 183 0 255 175 0 255 167 0 255 159 0 255 151 0 255 143 0 255 135 0 255 127 0 255 119 0 255 111 0 255 103 0 255 95 0 255 87 0 255 79 0 255 71 0 255 63 0 255 55 0 255 47 0 255 39 0 255 31 0 255 23 0 255 15 0 255 7 0 255 0 7 255 0 15 255 0 23 255 0 31 255 0 39 255 0 47 255 0 55 255 0 63 255 0 71 255 0 79 255 0 87 255 0 95 255 0 103 255 0 111 255 0 119 255 0 127 255 0 135 255 0 143 255 0 151 255 0 159 255 0 167 255 0 175 255 0 183 255 0 191 255 0 199 255 0 207 255 0 215 255 0 223 255 0 231 255 0 239 255 0 247 255 0 255 255 0 255 247 0 255 239 0 255 231 0 255 223 0 255 215 0 255 207 0 255 199 0 255 191 0 255 183 0 255 175 0 255 167 0 255 159 0 255 151 0 255 143 0 255 135 0 255 127 0 255 119 0 255 111 0 255 103 0 255 95 0 255 87 0 255 79 0 255 71 0 255 63 0 255 55 0 255 47 0 255 39 0 255 31 0 255 23 0 255 15 0 255 7 0 255 0 0 255 0 7 255 0 15 255 0 23 255 0 31 255 0 39 255 0 47 255 0 55 255 0 63 255 0 71 255 0 79 255 0 87 255 0 95 255 0 103 255 0 111 255 0 119 255 0 127 255 0 135 255 0 143 255 0 151 255 0 159 255 0 167 255 0 175 255 0 183 255 0 191 255 0 199 255 0 207 255 0 215 255 0 223 255 0 231 255 0 239 255 0 247 255 0 255 255 8 255 255 16 255 255 24 255 255 32 255 255 41 255 255 49 255 255 57 255 255 65 255 255 74 255 255 82 255 255 90 255 255 98 255 255 106 255 255 115 255 255 123 255 255 131 255 255 139 255 255 148 255 255 156 255 255 164 255 255 172 255 255 180 255 255 189 255 255 197 255 255 205 255 255 213 255 255 222 255 255 230 255 255 238 255 255 246 255 255 255 255
0 0 0 0 0 7 0 0 15 0 0 23 0 0 31 0 0 39 0 0 47 0 0 55 0 0 63 0 0 71 0 0 79 0 0 87 0 0 95 0 0 103 0 0 111 0 0 119 0 0 127 0 0 135 0 0 143 0 0 151 0 0 159 0 0 167 0 0 175 0 0 183 0 0 191 0 0 199 0 0 207 0 0 215 0 0 223 0 0 231 0 0 239 0 0 247 0 0 255 0 7 255 0 15 255 0 23 255 0 31 255 0 39 255 0 47 255 0 55 255 0 63 255 0 71 255 0 79 255 0 87 255 0 95 255 0 103 255 0 111 255 0 119 255 0 127 255 0 135 255 0 143 255 0 151 255 0 159 255 0 167 255 0 175 255 0 183 255 0 191 255 0 199 255 0 207 255 0 215 255 0 223 255 0 231 255 0 239 255 0 247 255 0 255 255 0 255 247 0 255 239 0 255 231 0 255 223 0 255 215 0 255 207 0 255 199 0 255 191 0 255 183 0 255 175 0 255 167 0 255 159 0 255 151 0 255 143 0 255 135 0 255 127 0 255 119 0 255 111 0 255 103 0 255 95 0 255 87 0 255 79 0 255 71 0 255 63 0 255 55 0 255 47 0 255 39 0 255 31 0 255 23 0 255 15 0 255 7 0 255 0 7 255 0 15 255 0 23 255 0 31 255 0 39 255 0 47 255 0 55 255 0 63 255 0 71 255 0 79 255 0 87 255 0 95 255 0 103 255 0 111 255 0 119 255 0 127 255 0 135 255 0 143 255 0 151 255 0 159 255 0 167 255 0 175 255 0 183 255 0 191 255 0 199 255 0 207 255 0 215 255 0 223 255 0 231 255 0 239 255 0 247 255 0 255 255 0 255 247 0 255 239 0 255 231 0 255 223 0 255 215 0 255 207 0 255 199 0 255 191 0 255 183 0 255 175 0 255 167 0 255 159 0 255 151 0 255 143 0 255 135 0 255 127 0 255 119 0 255 111 0 255 103 0 255 95 0 255 87 0 255 79 0 255 71 0 255 63 0 255 55 0 255 47 0 255 39 0 255 31 0 255 23 0 255 15 0 255 7 0 255 0 0 255 0 7 255 0 15 255 0 23 255 0 31 255 0 39 255 0 47 255 0 55 255 0 63 255 0 71 255 0 79 255 0 87 255 0 95 255 0 103 255 0 111 255 0 119 255 0 127 255 0 135 255 0 143 255 0 151 255 0 159 255 0 167 255 0 175 255 0 183 255 0 191 255 0 199 255 0 207 255 0 215 255 0 223 255 0 231 255 0 239 255 0 247 255 0 255 255 8 255 255 16 255 255 24 255 255 32 255 255 41 255 255 49 255 255 57 255 255 65 255 255 74 255 255 82 255 255 90 255 255 98 255 255 106 255 255 115 255 255 123 255 255 131 255 255 139 255 255 148 255 255 156 255 255 164 255 255 172 255 255 180 255 255 189 255 255 197 255 255 205 255 255 213 255 255 222 255 255 230 255 255 238 255 255 246 255 255 255 255
0 0 0 0 0 7 0 0 15 0 0 23 0 0 31 0 0 39 0 0 47 0 0 55 0 0 63 0 0 71 0 0 79 0 0 87 0 0 95 0 0 103 0 0 111 0 0 119 0 0 127 0 0 135 0 0 143 0 0 151 0 0 159 0 0 167 0 0 175 0 0 183 0 0 191 0 0 199 0 0 207 0 0 215 0 0 223 0 0 231 0 0 239 0 0 247 0 0 255 0 7 255 0 15 255 0 23 255 0 31 255 0 39 255 0 47 255 0 55 255 0 63 255 0 71 255 0 79 255 0 87 255 0 95 255 0 103 255 0 111 255 0 119 255 0 127 255 0 135 255 0 143 255 0 151 255 0 159 255 0 167 255 0 175 255 0 183 255 0 191 255 0 199 255 0 207 255 0 215 255 0 223 255 0 231 255 0 239 255 0 247 255 0 255 255 0 255 247 0 255 239 0 255 231 0 255 223 0 255 215 0 255 207 0 255 199 0 255 191 0 255 183 0 255 175 0 255 167 0 255 159 0 255 151 0 255 143 0 255 135 0 255 127 0 255 119 0 255 111 0 255 103 0 255 95 0 255 87 0 255 79 0 255 71 0 255 63 0 255 55 0 255 47 0 255 39 0 255 31 0 255 23 0 255 15 0 255 7 0 255 0 7 255 0 15 255 0 23 255 0 31 255 0 39 255 0 47 255 0 55 255 0 63 255 0 71 255 0 79 255 0 87 255 0 95 255 0 103 255 0 111 255 0 119 255 0 127 255 0 135 255 0 143 255 0 151 255 0 159 255 0 167 255 0 175 255 0 183 255 0 191 255 0 199 255 0 207 255 0 215 255 0 223 255 0 231 255 0 239 255 0 247 255 0 255 255 0 255 247 0 255 239 0 255 231 0 255 223 0 255 215 0 255 207 0 255 199 0 255 191 0 255 183 0 255 175 0 255 167 0 255 159 0 255 151 0 255 143 0 255 135 0 255 127 0 255 119 0 255 111 0 255 103 0 255 95 0 255 87 0 255 79 0 255 71 0 255 63 0 255 55 0 255 47 0 255 39 0 255 31 0 255 23 0 255 15 0 255 7 0 255 0 0 255 0 7 255 0 15 255 0 23 255 0 31 255 0 39 255 0 47 255 0 55 255 0 63 255 0 71 255 0 79 255 0 87 255 0 95 255 0 103 255 0 111 255 0 119 255 0 127 255 0 135 255 0 143 255 0 151 255 0 159 255 0 167 255 0 175 255 0 183 255 0 191 255 0 199 255 0 207 255 0 215 255 0 223 255 0 231 255 0 239 255 0 247 255 0 255 255 8 255 255 16 255 255 24 255 255 32 255 255 41 255 255 49 255 255 57 255 255 65 255 255 74 255 255 82 255 255 90 255 255 98 255 255 106 255 255 115 255 255 123 255 255 131 255 255 139 255 255 148 255 255 156 255 255 164 255 255 172 255 255 180 255 255 189 255 255 197 255 255 205 255 255 213 255 255 222 255 255 230 255 255 238 255 255 246 255 255 255 255
0 0 0 0 0 7 0 0 15 0 0 23 0 0 31 0 0 39 0 0 47 0 0 55 0 0 63 0 0 71 0 0 79 0 0 87 0 0 95 0 0 103 0 0 111 0 0 119 0 0 127 0 0 135 0 0 143 0 0 151 0 0 159 0 0 167 0 0 175 0 0 183 0 0 191 0 0 199 0 0 207 0 0 215 0 0 223 0 0 231 0 0 239 0 0 247 0 0 255 0 7 255 0 15 255 0 23 255 0 31 255 0 39 255 0 47 255 0 55 255 0 63 255 0 71 255 0 79 255 0 87 255 0 95 255 0 103 255 0 111 255 0 119 255 0 127 255 0 135 255 0 143 255 0 151 255 0 159 255 0 167 255 0 175 255 0 183 255 0 191 255 0 199 255 0 207 255 0 215 255 0 223 255 0 231 255 0 239 255 0 247 255 0 255 255 0 255 247 0 255 239 0 255 231 0 255 223 0 255 215 0 255 207 0 255 199 0 255 191 0 255 183 0 255 175 0 255 167 0 255 159 0 255 151 0 255 143 0 255 135 0 255 127 0 255 119 0 255 111 0 255 103 0 255 95 0 255 87 0 255 79 0 255 71 0 255 63 0 255 55 0 255 47 0 255 39 0 255 31 0 255 23 0 255 15 0 255 7 0 255 0 7 255 0 15 255 0 23 255 0 31 255 0 39 255 0 47 255 0 55 255 0 63 255 0 71 255 0 79 255 0 87 255 0 95 255 0 103 255 0 111 255 0 119 255 0 127 255 0 135 255 0 143 255 0 151 255 0 159 255 0 167 255 0 175 255 0 183 255 0 191 255 0 199 255 0 207 255 0 215 255 0 223 255 0 231 255 0 239 255 0 247 255 0 255 255 0 255 247 0 255 239 0 255 231 0 255 223 0 255 215 0 255 207 0 255 199 0 255 191 0 255 183 0 255 175 0 255 167 0 255 159 0 255 151 0 255 143 0 255 135 0 255 127 0 255 119 0 255 111 0 255 103 0 255 95 0 255 87 0 255 79 0 255 71 0 255 63 0 255 55 0 255 47 0 255 39 0 255 31 0 255 23 0 255 15 0 255 7 0 255 0 0 255 0 7 255 0 15 255 0 23 255 0 31 255 0 39 255 0 47 255 0 55 255 0 63 255 0 71 255 0 79 255 0 87 255 0 95 255 0 103 255 0 111 255 0 119 255 0 127 255 0 135 255 0 143 255 0 151 255 0 159 255 0 167 255 0 175 255 0 183 255 0 191 255 0 199 255 0 207 255 0 215 255 0 223 255 0 231 255 0 239 255 0 247 255 0 255 255 8 255 255 16 255 255 24 255 255 32 255 255 41 255 255 49 255 255 57 255 255 65 255 255 74 255 255 82 255 255 90 255 255 98 255 255 106 255 255 115 255 255 123 255 255 131 255 255 139 255 255 148 255 255 156 255 255 164 255 255 172 255 255 180 255 255 189 255 255 197 255 255 205 255 255 213 255 255 222 255 255 230 255 255 238 255 255 246 255 255 255 255
0 0 0 0 0 7 0 0 15 0 0 23 0 0 31 0 0 39 0 0 47 0 0 55 0 0 63 0 0 71 0 0 79 0 0 87 0 0 95 0 0 103 0 0 111 0 0 119 0 0 127 0 0 135 0 0 143 0 0 151 0 0 159 0 0 167 0 0 175 0 0 183 0 0 191 0 0 199 0 0 207 0 0 215 0 0 223 0 0 231 0 0 239 0 0 247 0 0 255 0 7 255 0 15 255 0 23 255 0 31 255 0 39 255 0 47 255 0 55 255 0 63 255 0 71 255 0 79 255 0 87 255 0 95 255 0 103 255 0 111 255 0 119 255 0 127 255 0 135 255 0 143 255 0 151 255 0 159 255 0 167 255 0 175 255 0 183 255 0 191 255 0 199 255 0 207 255 0 215 255 0 223 255 0 231 255 0 239 255 0 247 255 0 255 255 0 255 247 0 255 239 0 255 231 0 255 223 0 255 215 0 255 207 0 255 199 0 255 191 0 255 183 0 255 175 0 255 167 0 255 159 0 255 151 0 255 143 0 255 135 0 255 127 0 255 119 0 255 111 0 255 103 0 255 95 0 255 87 0 255 79 0 255 71 0 255 63 0 255 55 0 255 47 0 255 39 0 255 31 0 255 23 0 255 15 0 255 7 0 255 0 7 255 0 15 255 0 23 255 0 31 255 0 39 255 0 47 255 0 55 255 0 63 255 0 71 255 0 79 255 0 87 255 0 95 255 0 103 255 0 111 255 0 119 255 0 127 255 0 135 255 0 143 255 0 151 255 0 159 255 0 167 255 0 175 255 0 183 255 0 191 255 0 199 255 0 207 255 0 215 255 0 223 255 0 231 255 0 239 255 0 247 255 0 255 255 0 255 247 0 255 239 0 255 231 0 255 223 0 255 215 0 255 207 0 255 199 0 255 191 0 255 183 0 255 175 0 255 167 0 255 159 0 255 151 0 255 143 0 255 135 0 255 127 0 255 119 0 255 111 0 255 103 0 255 95 0 255 87 0 255 79 0 255 71 0 255 63 0 255 55 0 255 47 0 255 39 0 255 31 0 255 23 0 255 15 0 255 7 0 255 0 0 255 0 7 255 0 15 255 0 23 255 0 31 255 0 39 255 0 47 255 0 55 255 0 63 255 0 71 255 0 79 255 0 87 255 0 95 255 0 103 255 0 111 255 0 119 255 0 127 255 0 135 255 0 143 255 0 151 255 0 159 255 0 167 255 0 175 255 0 183 255 0 191 255 0 199 255 0 207 255 0 215 255 0 223 255 0 231 255 0 239 255 0 247 255 0 255 255 8 255 255 16 255 255 24 255 255 32 255 255 41 255 255 49 255 255 57 255 255 65 255 255 74 255 255 82 255 255 90 255 255 98 255 255 106 255 255 115 255 255 123 255 255 131 255 255 139 255 255 148 255 255 156 255 255 164 255 255 172 255 255 180 255 255 189 255 255 197 255 255 205 255 255 213 255 255 222 255 255 230 255 255 238 255 255 246 255 255 255 255
0 0 0 0 0 7 0 0 15 0 0 23 0 0 31 0 0 39 0 0 47 0 0 55 0 0 63 0 0 71 0 0 79 0 0 87 0 0 95 0 0 103 0 0 111 0 0 119 0 0 127 0 0 135 0 0 143 0 0 151 0 0 159 0 0 167 0 0 175 0 0 183 0 0 191 0 0 199 0 0 207 0 0 215 0 0 223 0 0 231 0 0 239 0 0 247 0 0 255 0 7 255 0 15 255 0 23 255 0 31 255 0 39 255 0 47 255 0 55 255 0 63 255 0 71 255 0 79 255 0 87 255 0 95 255 0 103 255 0 111 255 0 119 255 0 127 255 0 135 255 0 143 255 0 151 255 0 159 255 0 167 255 0 175 255 0 183 255 0 191 255 0 199 255 0 207 255 0 215 255 0 223 255 0 231 255 0 239 255 0 247 255 0 255 255 0 255 247 0 255 239 0 255 231 0 255 223 0 255 215 0 255 207 0 255 199 0 255 191 0 255 183 0 255 175 0 255 167 0 255 159 0 255 151 0 255 143 0 255 135 0 255 127 0 255 119 0 255 111 0 255 103 0 255 95 0 255 87 0 255 79 0 255 71 0 255 63 0 255 55 0 255 47 0 255 39 0 255 31 0 255 23 0 255 15 0 255 7 0 255 0 7 255 0 15 255 0 23 255 0 31 255 0 39 255 0 47 255 0 55 255 0 63 255 0 71 255 0 79 255 0 87 255 0 95 255 0 103 255 0 111 255 0 119 255 0 127 255 0 135 255 0 143 255 0 151 255 0 159 255 0 167 255 0 175 255 0 183 255 0 191 255 0 199 255 0 207 255 0 215 255 0 223 255 0 231 255 0 239 255 0 247 255 0 255 255 0 255 247 0 255 239 0 255 231 0 255 223 0 255 215 0 255 207 0 255 199 0 255 191 0 255 183 0 255 175 0 255 167 0 255 159 0 255 151 0 255 143 0 255 135 0 255 127 0 255 119 0 255 111 0 255 103 0 255 95 0 255 87 0 255 79 0 255 71 0 255 63 0 255 55 0 255 47 0 255 39 0 255 31 0 255 23 0 255 15 0 255 7 0 255 0 0 255 0 7 255 0 15 255 0 23 255 0 31 255 0 39 255 0 47 255 0 55 255 0 63 255 0 71 255 0 79 255 0 87 255 0 95 255 0 103 255 0 111 255 0 119 255 0 127 255 0 135 255 0 143 255 0 151 255 0 159 255 0 167 255 0 175 255 0 183 255 0 191 255 0 199 255 0 207 255 0 215 255 0 223 255 0 231 255 0 239 255 0 247 255 0 255 255 8 255 255 16 255 255 24 255 255 32 255 255 41 255 255 49 255 255 57 255 255 65 255 255 74 255 255 82 255 255 90 255 255 98 255 255 106 255 255 115 255 255 123 255 255 131 255 255 139 255 255 148 255 255 156 255 255 164 255 255 172 255 255 180 255 255 189 255 255 197 255 255 205 255 255 213 255 255 222 255 255 230 255 255 238 255 255 246 255 255 255 255
0 0 0 0 0 7 0 0 15 0 0 23 0 0 31 0 0 39 0 0 47 0 0 55 0 0 63 0 0 71 0 0 79 0 0 87 0 0 95 0 0 103 0 0 111 0 0 119 0 0 127 0 0 135 0 0 143 0 0 151 0 0 159 0 0 167 0 0 175 0 0 183 0 0 191 0 0 199 0 0 207 0 0 215 0 0 223 0 0 231 0 0 239 0 0 247 0 0 255 0 7 255 0 15 255 0 23 255 0 31 255 0 39 255 0 47 255 0 55 255 0 63 255 0 71 255 0 79 255 0 87 255 0 95 255 0 103 255 0 111 255 0 119 255 0 127 255 0 135 255 0 143 255 0 151 255 0 159 255 0 167 255 0 175 255 0 183 255 0 191 255 0 199 255 0 207 255 0 215 255 0 223 255 0 231 255 0 239 255 0 247 255 0 255 255 0 255 247 0 255 239 0 255 231 0 255 223 0 255 215 0 255 207 0 255 199 0 255 191 0 255 183 0 255 175 0 255 167 0 255 159 0 255 151 0 255 143 0 255 135 0 255 127 0 255 119 0 255 111 0 255 103 0 255 95 0 255 87 0 255 79 0 255 71 0 255 63 0 255 55 0 255 47 0 255 39 0 255 31 0 255 23 0 255 15 0 255 7 0 255 0 7 255 0 15 255 0 23 255 0 31 255 0 39 255 0 47 255 0 55 255 0 63 255 0 71 255 0 79 255 0 87 255 0 95 255 0 103 255 0 111 255 0 119 255 0 127 255 0 135 255 0 143 255 0 151 255 0 159 255 0 167 255 0 175 255 0 183 255 0 191 255 0 199 255 0 207 255 0 215 255 0 223 255 0 231 255 0 239 255 0 247 255 0 255 255 0 255 247 0 255 239 0 255 231 0 255 223 0 255 215 0 255 207 0 255 199 0 255 191 0 255 183 0 255 175 0 255 167 0 255 159 0 255 151 0 255 143 0 255 135 0 255 127 0 255 119 0 255 111 0 255 103 0 255 95 0 255 87 0 255 79 0 255 71 0 255 63 0 255 55 0 255 47 0 255 39 0 255 31 0 255 23 0 255 15 0 255 7 0 255 0 0 255 0 7 255 0 15 255 0 23 255 0 31 255 0 39 255 0 47 255 0 55 255 0 63 255 0 71 255 0 79 255 0 87 255 0 95 255 0 103 255 0 111 255 0 119 255 0 127 255 0 135 255 0 143 255 0 151 255 0 159 255 0 167 255 0 175 255 0 183 255 0 191 255 0 199 255 0 207 255 0 215 255 0 223 255 0 231 255 0 239 255 0 247 255 0 255 255 8 255 255 16 255 255 24 255 255 32 255 255 41 255 255 49 255 255 57 255 255 65 255 255 74 255 255 82 255 255 90 255 255 98 255 255 106 255 255 115 255 255 123 255 255 131 255 255 139 255 255 148 255 255 156 255 255 164 255 255 172 255 255 180 255 255 189 255 255 197 255 255 205 255 255 213 255 255 222 255 255 230 255 255 238 255 255 246 255 255 255 255
0 0 0 0 0 7 0 0 15 0 0 23 0 0 31 0 0 39 0 0 47 0 0 55 0 0 63 0 0 71 0 0 79 0 0 87 0 0 95 0 0 103 0 0 111 0 0 119 0 0 127 0 0 135 0 0 143 0 0 151 0 0 159 0 0 167 0 0 175 0 0 183 0 0 191 0 0 199 0 0 207 0 0 215 0 0 223 0 0 231 0 0 239 0 0 247 0 0 255 0 7 255 0 15 255 0 23 255 0 31 255 0 39 255 0 47 255 0 55 255 0 63 255 0 71 255 0 79 255 0 87 255 0 95 255 0 103 255 0 111 255 0 119 255 0 127 255 0 135 255 0 143 255 0 151 255 0 159 255 0 167 255 0 175 255 0 183 255 0 191 255 0 199 255 0 207 255 0 215 255 0 223 255 0 231 255 0 239 255 0 247 255 0 255 255 0 255 247 0 255 239 0 255 231 0 255 223 0 255 215 0 255 207 0 255 199 0 255 191 0 255 183 0 255 175 0 255 167 0 255 159 0 255 151 0 255 143 0 255 135 0 255 127 0 255 119 0 255 111 0 255 103 0 255 95 0 255 87 0 255 79 0 255 71 0 255 63 0 255 55 0 255 47 0 255 39 0 255 31 0 255 23 0 255 15 0 255 7 0 255 0 7 255 0 15 255 0 23 255 0 31 255 0 39 255 0 47 255 0 55 255 0 63 255 0 71 255 0 79 255 0 87 255 0 95 255 0 103 255 0 111 255 0 119 255 0 127 255 0 135 255 0 143 255 0 151 255 0 159 255 0 167 255 0 175 255 0 183 255 0 191 255 0 199 255 0 207 255 0 215 255 0 223 255 0 231 255 0 239 255 0 247 255 0 255 255 0 255 247 0 255 239 0 255 231 0 255 223 0 255 215 0 255 207 0 255 199 0 255 191 0 255 183 0 255 175 0 255 167 0 255 159 0 255 151 0 255 143 0 255 135 0 255 127 0 255 119 0 255 111 0 255 103 0 255 95 0 255 87 0 255 79 0 255 71 0 255 63 0 255 55 0 255 47 0 255 39 0 255 31 0 255 23 0 255 15 0 255 7 0 255 0 0 255 0 7 255 0 15 255 0 23 255 0 31 255 0 39 255 0 47 255 0 55 255 0 63 255 0 71 255 0 79 255 0 87 255 0 95 255 0 103 255 0 111 255 0 119 255 0 127 255 0 135 255 0 143 255 0 151 255 0 159 255 0 167 255 0 175 255 0 183 255 0 191 255 0 199 255 0 207 255 0 215 255 0 223 255 0 231 255 0 239 255 0 247 255 0 255 255 8 255 255 16 255 255 24 255 255 32 255 255 41 255 255 49 255 255 57 255 255 65 255 255 74 255 255 82 255 255 90 255 255 98 255 255 106 255 255 115 255 255 123 255 255 131 255 255 139 255 255 148 255 255 156 255 255 164 255 255 172 255 255 180 255 255 189 255 255 197 255 255 205 255 255 213 255 255 222 255 255 230 255 255 238 255 255 246 255 255 255 255
0 0 0 0 0 7 0 0 15 0 0 23 0 0 31 0 0 39 0 0 47 0 0 55 0 0 63 0 0 71 0 0 79 0 0 87 0 0 95 0 0 103 0 0 111 0 0 119 0 0 127 0 0 135 0 0 143 0 0 151 0 0 159 0 0 167 0 0 175 0 0 183 0 0 191 0 0 199 0 0 207 0 0 215 0 0 223 0 0 231 0 0 239 0 0 247 0 0 255 0 7 255 0 15 255 0 23 255 0 31 255 0 39 255 0 47 255 0 55 255 0 63 255 0 71 255 0 79 255 0 87 255 0 95 255 0 103 255 0 111 255 0 119 255 0 127 255 0 135 255 0 143 255 0 151 255 0 159 255 0 167 255 0 175 255 0 183 255 0 191 255 0 199 255 0 207 255 0 215 255 0 223 255 0 231 255 0 239 255 0 247 255 0 255 255 0 255 247 0 255 239 0 255 231 0 255 223 0 255 215 0 255 207 0 255 199 0 255 191 0 255 183 0 255 175 0 255 167 0 255 159 0 255 151 0 255 143 0 255 135 0 255 127 0 255 119 0 255 111 0 255 103 0 255 95 0 255 87 0 255 79 0 255 71 0 255 63 0 255 55 0 255 47 0 255 39 0 255 31 0 255 23 0 255 15 0 255 7 0 255 0 7 255 0 15 255 0 23 255 0 31 255 0 39 255 0 47 255 0 55 255 0 63 255 0 71 255 0 79 255 0 87 255 0 95 255 0 103 255 0 111 255 0 119 255 0 127 255 0 135 255 0 143 255 0 151 255 0 159 255 0 167 255 0 175 255 0 183 255 0 191 255 0 199 255 0 207 255 0 215 255 0 223 255 0 231 255 0 239 255 0 247 255 0 255 255 0 255 247 0 255 239 0 255 231 0 255 223 0 255 215 0 255 207 0 255 199 0 255 191 0 255 183 0 255 175 0 255 167 0 255 159 0 255 151 0 255 143 0 255 135 0 255 127 0 255 119 0 255 111 0 255 103 0 255 95 0 255 87 0 255 79 0 255 71 0 255 63 0 255 55 0 255 47 0 255 39 0 255 31 0 255 23 0 255 15 0 255 7 0 255 0 0 255 0 7 255 0 15 255 0 23 255 0 31 255 0 39 255 0 47 255 0 55 255 0 63 255 0 71 255 0 79 255 0 87 255 0 95 255 0 103 255 0 111 255 0 119 255 0 127 255 0 135 255 0 143 255 0 151 255 0 159 255 0 167 255 0 175 255 0 183 255 0 191 255 0 199 255 0 207 255 0 215 255 0 223 255 0 231 255 0 239 255 0 247 255 0 255 255 8 255 255 16 255 255 24 255 255 32 255 255 41 255 255 49 255 255 57 255 255 65 255 255 74 255 255 82 255 255 90 255 255 98 255 255 106 255 255 115 255 255 123 255 255 131 255 255 139 255 255 148 255 255 156 255 255 164 255 255 172 255 255 180 255 255 189 255 255 197 255 255 205 255 255 213 255 255 222 255 255 230 255 255 238 255 255 246 255 255 255 255
0 0 0 0 0 7 0 0 15 0 0 23 0 0 31 0 0 39 0 0 47 0 0 55 0 0 63 0 0 71 0 0 79 0 0 87 0 0 95 0 0 103 0 0 111 0 0 119 0 0 127 0 0 135 0 0 143 0 0 151 0 0 159 0 0 167 0 0 175 0 0 183 0 0 191 0 0 199 0 0 207 0 0 215 0 0 223 0 0 231 0 0 239 0 0 247 0 0 255 0 7 255 0 15 255 0 23 255 0 31 255 0 39 255 0 47 255 0 55 255 0 63 255 0 71 255 0 79 255 0 87 255 0 95 255 0 103 255 0 111 255 0 119 255 0 127 255 0 135 255 0 143 255 0 151 255 0 159 255 0 167 255 0 175 255 0 183 255 0 191 255 0 199 255 0 207 255 0 215 255 0 223 255 0 231 255 0 239 255 0 247 255 0 255 255 0 255 247 0 255 239 0 255 231 0 255 223 0 255 215 0 255 207 0 255 199 0 255 191 0 255 183 0 255 175 0 255 167 0 255 159 0 255 151 0 255 143 0 255 135 0 255 127 0 255 119 0 255 111 0 255 103 0 255 95 0 255 87 0 255 79 0 255 71 0 255 63 0 255 55 0 255 47 0 255 39 0 255 31 0 255 23 0 255 15 0 255 7 0 255 0 7 255 0 15 255 0 23 255 0 31 255 0 39 255 0 47 255 0 55 255 0 63 255 0 71 255 0 79 255 0 87 255 0 95 255 0 103 255 0 111 255 0 119 255 0 127 255 0 135 255 0 143 255 0 151 255 0 159 255 0 167 255 0 175 255 0 183 255 0 191 255 0 199 255 0 207 255 0 215 255 0 223 255 0 231 255 0 239 255 0 247 255 0 255 255 0 255 247 0 255 239 0 255 231 0 255 223 0 255 215 0 255 207 0 255 199 0 255 191 0 255 183 0 255 175 0 255 167 0 255 159 0 255 151 0 255 143 0 255 135 0 255 127 0 255 119 0 255 111 0 255 103 0 255 95 0 255 87 0 255 79 0 255 71 0 255 63 0 255 55 0 255 47 0 255 39 0 255 31 0 255 23 0 255 15 0 255 7 0 255 0 0 255 0 7 255 0 15 255 0 23 255 0 31 255 0 39 255 0 47 255 0 55 255 0 63 255 0 71 255 0 79 255 0 87 255 0 95 255 0 103 255 0 111 255 0 119 255 0 127 255 0 135 255 0 143 255 0 151 255 0 159 255 0 167 255 0 175 255 0 183 255 0 191 255 0 199 255 0 207 255 0 215 255 0 223 255 0 231 255 0 239 255 0 247 255 0 255 255 8 255 255 16 255 255 24 255 255 32 255 255 41 255 255 49 255 255 57 255 255 65 255 255 74 255 255 82 255 255 90 255 255 98 255 255 106 255 255 115 255 255 123 255 255 131 255 255 139 255 255 148 255 255 156 255 255 164 255 255 172 255 255 180 255 255 189 255 255 197 255 255 205 255 255 213 255 255 222 255 255 230 255 255 238 255 255 246 255 255 255 255
